<svg width="1920" height="392" viewBox="0 0 1920 392" fill="none" xmlns="http://www.w3.org/2000/svg">
<path d="M314.169 84.1456C127.619 84.1456 -1 1 -1 1L-0.999992 235.436V348.905V462.373H124.5L341 474.38H559.5H794.5C794.5 474.38 979.331 871.5 1092.24 871.5C1425.87 871.5 1864.76 1332.44 2097.24 1099.96C2241.95 955.247 2183.78 647.572 2129.66 474.38C2111.58 416.525 2113.35 274.26 2064.82 235.436C2023.21 202.149 2027.56 62.5327 1978.37 62.5327C1900.47 62.5327 1863.97 100.168 1816.27 159.791C1771.32 215.979 1689.55 214.583 1632.56 246.243C1581.88 274.396 1527.55 340.544 1514.89 397.534C1505.88 438.099 1491.36 555.88 1459.66 581.244C1425.62 608.476 1448.85 764.411 1448.85 808.18C1448.85 901.516 1355.51 713.642 1314.37 672.499C1265.28 623.405 1198.34 607.344 1151.07 554.828C1119.16 519.374 1148.72 493.752 1092.24 462.373C1065.18 447.344 1044.78 426.933 1023.06 405.201L1021.39 403.537C940.918 323.062 872.32 209.259 766.841 148.984C639.788 76.383 461.802 84.1456 314.169 84.1456Z" fill="#5D3EDE" stroke="#5D3EDE" stroke-linecap="round" stroke-linejoin="round"/>
</svg>
